<svg xmlns="http://www.w3.org/2000/svg" xmlns:xlink="http://www.w3.org/1999/xlink" width="229.677" height="50" viewBox="0 0 229.677 50"><defs><linearGradient id="a" x1="0.5" x2="0.5" y2="1" gradientUnits="objectBoundingBox"><stop offset="0" stop-color="#002db4"/><stop offset="0.5" stop-color="#1464f0"/><stop offset="0.999" stop-color="#28c8ff"/></linearGradient></defs><g transform="translate(-313.361 -149.1)"><path d="M339.021,199.1l24.056-13.889L371.1,199.1Zm3.207-50-8.019,13.889,24.056,13.889Zm-28.867,50H329.4V171.322Zm37.773-16.666a8.905,8.905,0,1,1-8.905-8.905A8.905,8.905,0,0,1,351.134,182.434Z" transform="translate(0)" fill="url(#a)"/><g transform="translate(377.268 158.256)"><path d="M759.612,211.76v15.273h-2.006V211.76h-5.872V209.9h13.75v1.861Z" transform="translate(-637.069 -194.289)"/><path d="M482.989,208.933,472.87,226.46h20.238Zm0,4.012,6.729,11.656H476.26Z" transform="translate(-471.801 -193.716)"/><path d="M716.528,208.933l-10.12,17.527h20.239Zm0,4.012,6.729,11.656H709.8Z" transform="translate(-610.207 -193.716)"/><path d="M679.2,227.033l-9.714-14.5v14.5h-2.03V209.9h2.658l9.183,13.726V209.9h2.03v17.133Z" transform="translate(-587.124 -194.289)"/><g transform="translate(64.354 15.611)"><path d="M634.461,209.9h-6.235v17.133h2.03V219.9h4.2a5,5,0,1,0,0-10Zm-.314,8.192h-3.89v-6.38h3.89a3.2,3.2,0,1,1,0,6.38Z" transform="translate(-628.226 -209.9)"/><path d="M641.394,230.93l-1.737,1,4.367,7.564h2.316Z" transform="translate(-635 -222.363)"/></g><rect width="2.03" height="17.133" transform="translate(132.02 15.611)"/><path d="M557.885,211.76v15.273h-2.006V211.76h-5.872V209.9h13.75v1.861Z" transform="translate(-517.516 -194.289)"/><path d="M814.677,224l-5.37-14.1h-2.172l6.527,17.133h2.03l6.527-17.133h-2.172Z" transform="translate(-669.903 -194.289)"/><path d="M851.978,227.033V209.9h10.27v1.861h-8.24v5.776H861.5V219.4h-7.491v5.776h8.24v1.861Z" transform="translate(-696.479 -194.289)"/><path d="M592.61,227.033V209.9h6.344v1.861H594.64v5.776h7.491V219.4H594.64v5.776h8.24v1.861Z" transform="translate(-542.765 -194.289)"/><path d="M527.451,228.713V212.734h2.03v14.118h8.313v1.861Z" transform="translate(-504.148 -195.969)"/><path d="M520.573,171.577a8.9,8.9,0,1,0,8.905,8.905A8.905,8.905,0,0,0,520.573,171.577Zm.014,15.949a6.79,6.79,0,0,1-6.889-6.989,6.876,6.876,0,1,1,6.889,6.989Z" transform="translate(-494.794 -171.577)"/><rect width="2.03" height="17.133" transform="translate(84.447 0.338)"/><path d="M697.891,186.5l-5.37-14.1H690.35l6.527,17.133h2.03l6.527-17.133h-2.172Z" transform="translate(-600.69 -172.069)"/><path d="M735.192,189.541V172.407h10.27v1.861h-8.24v5.776h7.491V181.9h-7.491v5.776h8.24v1.861Z" transform="translate(-627.266 -172.069)"/><path d="M600.657,171.577a8.9,8.9,0,1,0,8.905,8.905A8.905,8.905,0,0,0,600.657,171.577Zm.014,15.949a6.79,6.79,0,0,1-6.889-6.989,6.876,6.876,0,1,1,6.889,6.989Z" transform="translate(-542.256 -171.577)"/><path d="M481.434,189.511V181.73h-9.159v7.781h-2.03V172.378h2.03v7.491h9.159v-7.491h2.03v20.6Z" transform="translate(-470.246 -172.052)"/><path d="M564.363,189.541V172.407h2.03V187.68h8.313v1.861Z" transform="translate(-526.024 -172.069)"/><path d="M644.447,189.541V172.407h2.03V187.68h8.313v1.861Z" transform="translate(-573.485 -172.069)"/></g></g></svg>